<?xml version="1.0" encoding="utf-8"?><svg xmlns="http://www.w3.org/2000/svg" xmlns:xlink="http://www.w3.org/1999/xlink"><symbol viewBox="0 0 6 9" id="arrow-left" xmlns="http://www.w3.org/2000/svg"><path d="M5 1L1.165 4.451a.2.2 0 000 .298L5 8.2"/></symbol><symbol viewBox="0 0 6 9" id="arrow-right" xmlns="http://www.w3.org/2000/svg"><path d="M1 1l3.835 3.451a.2.2 0 010 .298L1 8.2"/></symbol><symbol viewBox="0 0 68 20" id="big-arrow" xmlns="http://www.w3.org/2000/svg"><path d="M2 11.25a1.25 1.25 0 110-2.5v2.5zm65.384-2.134a1.25 1.25 0 010 1.768l-7.955 7.955a1.25 1.25 0 11-1.768-1.768L64.732 10l-7.07-7.071a1.25 1.25 0 111.767-1.768l7.955 7.955zM2 8.75h64.5v2.5H2v-2.5z"/></symbol><symbol viewBox="0 0 14 14" id="close" xmlns="http://www.w3.org/2000/svg"><path d="M13 1L1 13M1 1l12 12"/></symbol><symbol viewBox="0 0 20 25" id="docs-arrow" xmlns="http://www.w3.org/2000/svg"><path d="M16.427 9.684L15.42 8.631l-4.706 4.908V0H9.286v13.54L4.579 8.63 3.574 9.682 10 16.392l6.427-6.708zM0 23.023h20v1.49H0v-1.49z"/></symbol><symbol viewBox="0 0 21 35" id="mouse" xmlns="http://www.w3.org/2000/svg"><path d="M20.25 27.566l-10.054 6.559L0 27.565V6.896L3.115 4.79l3.54-2.395L10.196 0 20.25 6.896v20.67zM10.125 6v8.25"/></symbol><symbol viewBox="0 0 22 11" id="mouse-down" xmlns="http://www.w3.org/2000/svg"><path d="M20.655 1l-9.759 8.55L1 1"/></symbol><symbol viewBox="0 0 18 18" id="phone" xmlns="http://www.w3.org/2000/svg"><path d="M17.75 14.968l-2.538 2.517c-.374.384-.871.514-1.355.515-2.138-.064-4.16-1.115-5.82-2.193-2.724-1.982-5.223-4.44-6.792-7.41C.643 7.152-.063 5.563.005 4.173.01 3.65.15 3.137.52 2.8L3.057.263c.527-.448 1.037-.293 1.374.23l2.042 3.87c.215.46.092.95-.229 1.279l-.935.934a.46.46 0 00-.095.267c.358 1.388 1.444 2.667 2.404 3.547.96.88 1.99 2.073 3.33 2.356.165.046.368.062.486-.048l1.088-1.106c.375-.284.916-.423 1.316-.19h.02l3.682 2.173c.54.34.597.994.21 1.393z"/></symbol><symbol viewBox="0 0 112 110" id="pin" xmlns="http://www.w3.org/2000/svg"><path d="M21.642 11.206l52.977-9.264 35.244 41.372L89.867 98.25l-16.52 3.157-18.772 3.588-18.773 3.587-34.157-42.44 6.587-18.096 6.587-18.097 6.823-18.743z"/></symbol></svg>